<?xml version="1.0" encoding="UTF-8" standalone="no"?>
<svg width="207px" height="146px" viewBox="0 0 207 146" version="1.1" xmlns="http://www.w3.org/2000/svg" xmlns:xlink="http://www.w3.org/1999/xlink">
    <!-- Generator: Sketch 39.1 (31720) - http://www.bohemiancoding.com/sketch -->
    <title>meetup</title>
    <desc>Created with Sketch.</desc>
    <defs></defs>
    <g id="Website-/-LP" stroke="none" stroke-width="1" fill="none" fill-rule="evenodd">
        <g id="Home" transform="translate(-420.000000, -1575.000000)">
            <g id="Meetup-Panel" transform="translate(357.000000, 1534.000000)">
                <g id="meetup" transform="translate(166.873651, 114.420846) rotate(-5.000000) translate(-166.873651, -114.420846) translate(67.373651, 48.420846)">
                    <g id="g9361" transform="translate(0.000000, 0.000000)">
                        <rect id="rect8591" fill="#FFFFFF" x="1.29169226" y="33.138422" width="194.582549" height="84.3780263"></rect>
                        <g id="g8585" transform="translate(0.176610, -0.000000)">
                            <path d="M8.271162,130.572698 C5.63669822,129.560772 2.58297589,126.669906 1.21078272,123.888437 L0.20431703,121.847441 L0.20431703,65.7200603 L0.20431703,9.59267962 L1.21078272,7.55168395 C2.6238393,4.68735064 5.63138598,1.87771601 8.38762271,0.847421399 L10.6551331,7.10542736e-14 L98.8894424,7.10542736e-14 L187.123752,7.10542736e-14 L189.464816,0.874770741 C192.278262,1.92669991 195.376934,4.84001712 196.680885,7.66026492 L197.574568,9.59267962 L197.574568,65.7200603 L197.574568,121.847441 L196.680477,123.779856 C195.376525,126.599695 192.277853,129.513421 189.464408,130.564942 L187.123752,131.440121 L98.7717558,131.418486 C11.1234277,131.397668 10.4030059,131.391137 8.271162,130.572698 L8.271162,130.572698 Z M195.327081,74.4963417 L195.327081,35.1051254 L98.8894424,35.1051254 L2.45180436,35.1051254 L2.45180436,74.4963417 L2.45180436,113.887558 L98.8894424,113.887558 L195.327081,113.887558 L195.327081,74.4963417 L195.327081,74.4963417 Z M155.337743,108.17277 C154.552757,107.590678 153.180972,100.090836 152.613788,93.2828904 C152.337552,89.9699462 152.196164,89.5135796 151.138619,88.5269623 C149.459133,86.9594776 149.743134,84.9054196 151.639605,84.9054196 C152.353897,84.9054196 152.777242,83.5244819 153.078814,80.2111296 C153.481318,75.7838018 155.338969,68.8505395 157.009465,65.5388199 C159.025257,61.5425504 164.203059,57.1478786 166.895549,57.1478786 C167.778198,57.1478786 170.149093,57.9181503 173.056524,59.1492789 C173.506022,59.3394997 174.389897,59.7027969 175.020828,59.9562886 C176.502127,60.5514429 178.032053,63.8268328 178.383886,67.1552885 C178.696083,70.1086092 178.04186,74.0391587 176.763652,76.8924706 C174.78995,81.2977556 166.409683,88.7726982 162.251014,89.8372815 L160.184551,90.3663076 L160.19681,94.2695077 C160.212338,99.1111576 160.790964,103.717277 161.673205,106.025235 C162.04261,106.99185 162.211376,107.916829 162.047923,108.080109 C161.716112,108.411158 155.770078,108.493206 155.337743,108.17277 L155.337743,108.17277 L155.337743,108.17277 Z M164.442518,80.3927782 C166.111788,78.8085573 167.944512,76.62061 168.515783,75.5299019 C169.773558,73.1264254 170.47314,69.1370953 170.137243,66.2813342 C169.753944,63.0243133 169.395163,62.790007 167.705461,64.6962969 C164.913265,67.8459614 163.235822,71.5332242 161.95598,77.3329175 C160.814665,82.5052087 160.698613,83.2730312 161.055759,83.2730312 C161.249452,83.272623 162.773657,81.9765908 164.442518,80.3927782 L164.442518,80.3927782 Z M112.867179,86.2912556 C112.60361,82.1312983 112.29836,78.5820068 112.188438,78.4044402 C112.078515,78.2268736 110.5633,77.9521556 108.821702,77.7941825 C105.240024,77.4700724 104.610319,77.1255523 104.610319,75.4898984 C104.610319,73.6599417 105.922443,73.0121297 108.994554,73.326443 L111.557098,73.588915 L111.539118,72.0018368 C111.529311,71.1286989 111.345426,69.0366783 111.130893,67.3528569 C109.558878,55.0215693 109.265887,46.2722291 110.330379,43.4748404 C110.657286,42.6159894 110.984193,42.4527098 112.377635,42.4527098 C113.979481,42.4527098 117.747087,44.0087649 118.296291,44.8970062 C118.438904,45.1272305 118.646899,50.3203399 118.759274,56.4363875 C119.022025,70.7584622 119.025703,69.7971533 118.696344,71.3327984 C118.442991,72.5116775 118.510824,72.6594456 119.303983,72.6594456 C120.037481,72.6594456 120.173556,72.459428 120.065268,71.536898 C119.95412,70.5841612 120.098776,70.395165 121.025149,70.2882168 C121.889819,70.1882081 122.672353,70.6915176 124.804606,72.7198591 C126.283453,74.1269215 127.493827,75.4943886 127.493827,75.7589016 C127.493827,76.343851 126.04481,76.6700021 120.258552,77.3884326 L118.539428,77.6019207 L118.742928,85.2850448 C118.973398,93.9992799 119.211223,93.3996353 115.414195,93.6939469 L113.34569,93.8543692 L112.867179,86.2912556 L112.867179,86.2912556 Z M52.9618346,92.8318303 C52.8253508,92.4771053 52.7097074,91.87991 52.7039865,91.5051832 C52.6986742,91.1308646 52.2234328,89.7221693 51.6484847,88.3751122 C50.4818345,85.6438518 48.4607304,79.2543108 47.7750424,76.1291382 C47.0059931,72.6259733 46.1102673,69.7318414 45.8691732,69.9726789 C45.7416794,70.0996288 45.4883262,73.8330181 45.3056668,78.2689181 C45.123416,82.7048181 44.7319446,87.1607198 44.4360935,88.1710126 L43.8983311,90.0079087 L39.8622525,90.3810027 L35.8261739,90.7536886 L34.9210495,89.6197114 C34.4229245,88.9959831 32.8623511,86.574954 31.4525636,84.240055 C30.0427761,81.905156 28.8377142,80.0470335 28.7739673,80.1098962 C28.7110377,80.173167 28.9108597,82.0280239 29.2189698,84.2314828 C29.5274885,86.4349417 29.6880817,88.475121 29.5765246,88.7657588 C29.2177439,89.6993102 25.1755358,91.1712763 23.1303223,91.113312 C21.2436589,91.0594297 20.8411543,90.276912 20.2363759,85.4817968 C19.2237807,77.4561936 19.1122236,75.1196618 19.4093006,68.2051767 L19.7026998,61.3760052 L21.5035501,60.8947384 C24.4007656,60.1207928 27.6212106,60.2689691 28.5054947,61.2172157 C28.9173979,61.6592954 30.8931435,65.1951163 32.8954504,69.075049 L36.5363799,76.1291382 L37.0520761,72.2512465 C37.8288894,66.4070595 40.4829677,57.6066944 42.3075187,54.8256337 C42.989529,53.7855423 43.0545018,53.7732963 46.5062337,54.0382176 C50.6244477,54.3545719 51.2406679,54.7623628 52.0677432,57.7205819 C53.9131347,64.3187127 54.5416138,66.9671087 56.4004902,75.9789209 C56.8467186,78.14156 57.4866395,80.6903553 57.8229453,81.6430921 C58.1596598,82.5958289 58.4350792,83.7138863 58.4350792,84.1278002 C58.4350792,84.5417142 58.8947925,86.2871736 59.4566643,88.0065084 C60.4892826,91.1671943 60.6997291,92.2019791 60.2093682,91.7125483 C60.0614427,91.5647802 59.6932634,91.6488692 59.3908742,91.8990953 C58.9544531,92.2615761 54.6494932,93.3992271 53.4730358,93.4633144 C53.3279707,93.4710702 53.0983183,93.1869636 52.9618346,92.8318303 L52.9618346,92.8318303 L52.9618346,92.8318303 Z M69.3415222,92.6211996 C67.4013277,92.1652412 66.557907,91.7190795 63.8065739,89.6931872 C60.6425204,87.3631866 60.1399005,85.9736767 60.0847349,79.3947313 C60.0283434,72.7329214 60.2800619,70.3237302 61.4025797,66.7756633 C62.4319289,63.5227244 64.6732867,60.7796262 68.3906308,58.2242997 C70.9147633,56.4890452 71.1427811,56.4776156 76.1293426,57.8426335 C78.0229528,58.3614546 78.6260967,58.7365896 79.1307597,59.7117773 C80.4281729,62.2177118 80.8543782,76.0752559 79.6918143,77.9541966 C79.2880839,78.6073152 73.1074937,78.6444613 70.2871014,78.0121608 C69.4097641,77.8150006 68.5908614,77.7549954 68.4670453,77.8782715 C68.3436378,78.0015476 68.2467916,79.4037117 68.2516952,80.9936473 C68.2623197,84.4229282 69.1372052,86.6602677 71.1186717,88.3257201 C72.326594,89.3409114 72.681697,89.4360218 74.3440204,89.1882449 C75.3713264,89.0351702 76.683859,88.6318695 77.2612589,88.2922478 C78.680445,87.4570724 82.4521374,88.1975456 83.7360656,89.5625635 L84.6272965,90.5099937 L82.4627619,91.3308821 C78.4896129,92.8375451 72.6874179,93.4082075 69.3415222,92.6211996 L69.3415222,92.6211996 L69.3415222,92.6211996 Z M71.9195945,69.3938525 C71.9195945,67.1487573 71.7569581,65.3118612 71.558362,65.3118612 C71.1366516,65.3118612 69.5429788,69.0860704 69.0583388,71.2331978 C68.7649396,72.5320875 68.8323642,72.756597 69.6067257,73.0684611 C71.8190705,73.959968 71.9195945,73.8003622 71.9195945,69.3938525 L71.9195945,69.3938525 Z M95.4160529,91.9746122 C89.3633652,91.2051568 87.1865716,90.0715878 84.6890002,86.3888152 C82.8395225,83.662045 82.737364,83.3636515 82.5130239,80.0323383 C82.3197399,77.1582082 82.448051,75.8846269 83.234263,72.8635452 C85.5830915,63.8407115 86.3819711,62.2417955 90.8830753,57.5609761 C92.9331924,55.4293602 93.43949,55.1081075 94.7385377,55.1158633 C95.561118,55.1207617 97.0350611,55.4881409 98.0153742,55.9322615 C98.99487,56.3763822 100.017272,56.7396794 100.287788,56.7396794 C100.558304,56.7396794 101.205989,57.1368572 101.727406,57.622206 C102.646424,58.4777913 102.666856,58.643112 102.389393,63.0222723 C102.232069,65.5069804 101.936218,67.7418707 101.731901,67.9876065 C101.527175,68.2337506 101.310191,70.8360201 101.248895,73.7697472 L101.137747,79.1049099 L98.8350941,79.7482317 C96.8021397,80.3168531 96.1810159,80.3250171 93.5293895,79.8200748 C90.0408805,79.156343 89.7760856,79.3163571 90.034751,81.9312807 C90.2431544,84.035139 92.4207653,87.5660615 94.0197503,88.3918484 C96.2864435,89.5625635 100.908095,88.8029049 102.042871,87.0733652 C102.800479,85.918978 103.594864,85.8871385 105.326246,86.9419251 C107.037606,87.9844656 107.129548,89.4519415 105.530563,90.1944557 C101.623204,92.0072681 99.1272675,92.4468986 95.4160529,91.9746122 L95.4160529,91.9746122 L95.4160529,91.9746122 Z M94.5452537,74.5983915 C94.6809202,74.0934492 94.7871651,71.6593577 94.7810356,69.189753 C94.7708197,64.8869259 94.7434413,64.7485464 94.1321247,65.8759924 C93.34673,67.3242829 91.1253953,73.6672893 91.1253953,74.4616448 C91.1253953,75.1417045 91.7367118,75.4400981 93.2229139,75.4845918 C94.0083086,75.5082673 94.3658634,75.2690627 94.5452537,74.5983915 L94.5452537,74.5983915 L94.5452537,74.5983915 Z M132.947865,91.2447521 C130.841357,89.7711532 129.085865,83.592243 128.358496,75.0886386 C127.958852,70.415575 128.017287,68.1578256 128.56077,67.279381 C128.945703,66.6576938 131.138434,66.938943 133.101512,67.8631058 C136.731,69.571011 136.621486,69.294252 136.975363,77.6704982 C137.334552,86.1565499 137.552763,87.8832323 138.238859,87.6542325 C139.143984,87.3529816 142.469856,82.0047565 142.973702,80.0405023 C143.262198,78.9155055 143.439545,76.0638264 143.389692,73.3460365 C143.269144,66.7907667 143.709652,66.3748118 148.451442,68.5672493 C152.232533,70.3155662 152.26032,70.3698567 151.686597,74.909031 C151.17131,78.984083 150.631504,80.6274927 149.457907,81.6965662 C149.053768,82.0639454 148.29943,83.1664913 147.780873,84.145761 C147.262317,85.1246225 146.592974,85.9259174 146.292219,85.9259174 C145.992282,85.9259174 145.671095,86.2014518 145.579153,86.5382161 C145.43041,87.0827538 145.459832,87.0827538 145.845174,86.5382161 C146.083407,86.2014518 146.278734,86.109607 146.278734,86.3341165 C146.278734,87.2333792 142.282702,91.0631035 140.944017,91.4464025 C138.784386,92.0652324 133.94575,91.9431808 132.947865,91.2447521 L132.947865,91.2447521 L132.947865,91.2447521 Z" id="path8589" fill="#F00101"></path>
                            <path d="M155.337743,108.17277 C154.572371,107.604965 153.183015,99.9589872 152.594174,93.0743006 C152.329787,89.981784 152.172463,89.4923532 151.133307,88.5220639 C149.452595,86.9537628 149.746403,84.9058278 151.652681,84.9058278 C152.388222,84.9058278 152.75681,83.84451 153.020788,80.9658898 C153.492351,75.8233971 155.249069,69.0301471 157.009873,65.5392281 C159.025665,61.5429586 164.203467,57.1482868 166.895957,57.1482868 C167.778607,57.1482868 170.149502,57.9185585 173.056933,59.1496871 C173.50643,59.3399079 174.390306,59.7032051 175.021237,59.9566968 C175.81603,60.2759085 176.467393,61.0751624 177.141639,62.5589663 C178.919606,66.4707386 178.861988,71.3389214 176.97982,76.3442592 C175.315862,80.7687296 166.65282,88.7106519 162.265725,89.8336077 L160.184551,90.3663076 L160.19681,94.2695077 C160.212338,99.1111576 160.790964,103.717277 161.673205,106.025235 C162.04261,106.99185 162.211376,107.916829 162.047923,108.080109 C161.716112,108.411158 155.770078,108.493206 155.337743,108.17277 L155.337743,108.17277 L155.337743,108.17277 Z M164.442518,80.3927782 C166.133855,78.7881474 167.961675,76.5875459 168.571357,75.4233619 C169.842209,72.9958017 170.478861,69.2652698 170.132339,66.2735784 C169.749857,62.9692064 169.400475,62.7810266 167.54732,64.8836603 C164.710174,68.1027187 163.229284,71.5781261 161.625804,78.7824326 C161.251086,80.466254 160.852668,82.1651788 160.741111,82.5582746 C160.363124,83.8877791 161.396969,83.282828 164.442518,80.3927782 L164.442518,80.3927782 L164.442518,80.3927782 Z M112.867179,86.2912556 C112.60361,82.1312983 112.29836,78.5820068 112.188438,78.4044402 C112.078515,78.2268736 110.5633,77.9521556 108.821702,77.7941825 C105.240024,77.4700724 104.610319,77.1255523 104.610319,75.4898984 C104.610319,73.6599417 105.922443,73.0121297 108.994554,73.326443 L111.557098,73.588915 L111.539118,72.0018368 C111.529311,71.1286989 111.345426,69.0366783 111.130893,67.3528569 C109.558878,55.0215693 109.265887,46.2722291 110.330379,43.4748404 C110.657286,42.6159894 110.984193,42.4527098 112.377635,42.4527098 C113.981524,42.4527098 117.747087,44.0087649 118.297926,44.8994554 C118.501017,45.2276475 118.843044,57.4323934 118.967677,68.7815538 C118.975441,69.4550824 118.853259,70.6033466 118.696344,71.3327984 C118.442991,72.5116775 118.510824,72.6594456 119.303983,72.6594456 C120.037481,72.6594456 120.173556,72.459428 120.065268,71.536898 C119.953711,70.5821202 120.097959,70.395165 121.032505,70.2874004 C121.912703,70.1861671 122.682161,70.6898848 124.899818,72.8194597 C126.422388,74.281629 127.533464,75.6127663 127.368785,75.7772706 C126.747252,76.3981415 123.950969,77.1373901 122.181584,77.1484115 C118.268913,77.1737198 118.512867,76.5953016 118.743745,85.3058629 C118.973398,93.9960143 119.210814,93.3996353 115.414195,93.6939469 L113.34569,93.8543692 L112.867179,86.2912556 L112.867179,86.2912556 Z M52.734634,91.5386555 C52.4682046,90.4724393 51.8045829,88.5894168 51.2598737,87.3546144 C50.1957906,84.9425657 48.8235974,80.3866552 47.3864315,74.4963417 C46.8936188,72.475756 46.3444146,70.5543627 46.1666588,70.2265788 C45.7073541,69.380382 45.4339779,72.0573519 45.1892061,79.8029304 C45.0756058,83.3950828 44.7384827,87.1607198 44.4405885,88.1710126 L43.8983311,90.0079087 L39.8622525,90.3810027 L35.8261739,90.7536886 L34.9210495,89.6197114 C34.4229245,88.9959831 32.8623511,86.574954 31.4525636,84.240055 C30.0427761,81.905156 28.8389401,80.0454007 28.7768277,80.107447 C28.7147154,80.169085 28.9018698,81.9463841 29.1924086,84.0563654 C29.4825388,86.1663467 29.6374111,88.2101998 29.5356612,88.5983971 C29.2561555,89.6650215 25.4035536,91.1773993 23.1303223,91.113312 C21.242433,91.0594297 20.8407457,90.2777284 20.2400536,85.4817968 C19.2143821,77.3023025 19.1232567,75.404993 19.416656,68.3688645 L19.7084207,61.3739642 L21.5060019,60.8935138 C24.4007656,60.1199764 27.6212106,60.2689691 28.5050861,61.2168075 C28.9169892,61.6588872 30.8927349,65.1947081 32.8950418,69.0746408 L36.5359713,76.12873 L37.0516675,72.2508383 C37.8113182,66.5356422 40.0747422,58.8843577 42.0251526,55.4395652 L42.7913415,54.0859769 L46.3995802,54.1741479 C49.3683066,54.2468073 50.1504322,54.4047804 50.8120108,55.0656548 C51.8372736,56.0898264 53.7733818,63.4125107 56.6215612,77.0357485 C56.9603188,78.6579319 57.5070712,80.7475032 57.8368389,81.67983 C58.1661979,82.6117487 58.4354878,83.7130699 58.4354878,84.1269838 C58.4354878,84.5408978 58.8952011,86.2863572 59.4570729,88.005692 C60.4896912,91.1663779 60.7001378,92.2011627 60.2097769,91.7117319 C60.0618514,91.5639638 59.6936721,91.6480529 59.3912829,91.8982789 C58.955679,92.2595352 54.6556227,93.3971861 53.4779394,93.462498 C53.3357347,93.4710702 53.0010634,92.6048716 52.734634,91.5386555 L52.734634,91.5386555 L52.734634,91.5386555 Z M69.3415222,92.6211996 C67.4013277,92.1652412 66.557907,91.7190795 63.8065739,89.6931872 C60.664178,87.3791063 60.1349968,85.947552 60.0741104,79.5988309 C60.0124066,73.1035663 60.3021282,70.2763791 61.3805135,66.8491391 C62.3857532,63.6570219 64.7979201,60.6751273 68.2884722,58.3112461 C70.3957981,56.8841819 70.5841784,56.8347898 72.7368626,57.146654 C76.5772055,57.7034376 78.4777625,58.4655454 79.1246302,59.7076953 C80.3962994,62.1499507 80.8372156,76.1009725 79.7008043,77.9378686 C79.2954393,78.5930282 72.5599241,78.6175201 70.3046727,77.9713409 C69.5556465,77.7570364 68.7849626,77.6786621 68.592496,77.7974481 C68.4000293,77.916234 68.2459743,79.334726 68.2508779,80.9491536 C68.2615024,84.4253774 69.127398,86.6521037 71.1178545,88.3249037 C72.3257767,89.340095 72.6808797,89.4352054 74.3432031,89.1874285 C75.3705091,89.0343538 76.6830417,88.6310531 77.2604417,88.2914314 C78.6796277,87.4566642 82.4513201,88.1967292 83.7352483,89.5617471 L84.6264792,90.5091773 L82.4619446,91.3300657 C78.4896129,92.8375451 72.6874179,93.4082075 69.3415222,92.6211996 L69.3415222,92.6211996 L69.3415222,92.6211996 Z M71.997235,71.9450971 C72.1929707,69.5820323 71.8881297,65.3118612 71.5236281,65.3118612 C71.1305221,65.3118612 69.5249989,69.1685266 69.0587474,71.2331978 C68.7657568,72.5320875 68.8327728,72.756597 69.6071344,73.0684611 C71.390822,73.7872998 71.863203,73.5652395 71.997235,71.9450971 L71.997235,71.9450971 Z M95.4160529,91.9746122 C89.362548,91.2047486 87.1865716,90.071996 84.6890002,86.3879988 C82.8150044,83.6240825 82.7398158,83.3983484 82.5032166,79.8274224 C82.3348594,77.278627 82.4214898,75.6850176 82.7823137,74.7000331 C83.0704007,73.9142497 83.5954955,71.9422397 83.9497812,70.3184236 C85.2100086,64.5403649 86.5699428,62.04586 90.9357891,57.5058692 C92.9340096,55.4281356 93.442759,55.1076993 94.738129,55.1158633 C95.5607094,55.1207617 97.0346524,55.4881409 98.0149655,55.9322615 C98.9944614,56.3763822 100.016864,56.7396794 100.287788,56.7396794 C100.557895,56.7396794 101.20558,57.1368572 101.726997,57.622206 C102.646015,58.4777913 102.666447,58.643112 102.388985,63.0222723 C102.23166,65.5069804 101.935809,67.7418707 101.731492,67.9876065 C101.526767,68.2337506 101.309782,70.8360201 101.248487,73.7697472 L101.137338,79.1049099 L98.8346855,79.7482317 C96.801731,80.3168531 96.1806072,80.3250171 93.5289808,79.8200748 C90.2063773,79.1877743 89.9170644,79.3147243 89.9060313,81.4087858 C89.8974499,83.0379085 91.3566822,85.9246928 93.0361682,87.6027994 C94.2101738,88.7751474 94.7099333,88.9874109 96.3019716,88.9874109 C98.9192727,88.9874109 101.310191,88.190198 102.042463,87.0737734 C102.80007,85.9193862 103.594455,85.8875467 105.325838,86.9423333 C107.384945,88.196321 107.152432,89.4890876 104.675701,90.553671 C101.201494,92.046047 98.8342768,92.4093442 95.4160529,91.9746122 L95.4160529,91.9746122 L95.4160529,91.9746122 Z M94.5452537,74.5983915 C94.6809202,74.0934492 94.7871651,71.6593577 94.7810356,69.189753 C94.7708197,64.8869259 94.7434413,64.7485464 94.1321247,65.8759924 C93.34673,67.3242829 91.1253953,73.6672893 91.1253953,74.4616448 C91.1253953,75.1417045 91.7367118,75.4400981 93.2229139,75.4845918 C94.0083086,75.5082673 94.3658634,75.2690627 94.5452537,74.5983915 L94.5452537,74.5983915 L94.5452537,74.5983915 Z M132.95236,91.2480177 C130.827463,89.7609483 129.088725,83.5453001 128.324171,74.7004413 C127.951905,70.3935322 128.023825,68.1480288 128.56077,67.279381 C128.945703,66.6576938 131.138434,66.938943 133.101512,67.8631058 C136.731,69.571011 136.621486,69.294252 136.975363,77.6704982 C137.334552,86.1565499 137.552763,87.8832323 138.238859,87.6542325 C139.143575,87.3533898 142.469856,82.0055729 142.973293,80.0425433 C143.24953,78.965714 143.446083,76.3597707 143.41094,74.2501976 C143.375389,72.1406245 143.345968,69.9971709 143.345559,69.4873301 C143.344742,68.314574 144.129319,67.3528569 145.08634,67.3528569 C146.114872,67.3528569 150.959637,69.6395884 151.622851,70.4380259 C152.069488,70.9756242 152.080929,71.7883487 151.686189,74.909031 C151.170901,78.984083 150.631096,80.6274927 149.457499,81.6965662 C149.05336,82.0639454 148.298612,83.1664913 147.780464,84.145761 C147.261908,85.1246225 146.592565,85.9259174 146.291811,85.9259174 C145.991873,85.9259174 145.670687,86.2014518 145.578744,86.5382161 C145.430001,87.0827538 145.459423,87.0827538 145.844765,86.5382161 C146.082999,86.2014518 146.278326,86.109607 146.278326,86.3341165 C146.278326,87.2333792 142.282293,91.0631035 140.943608,91.4464025 C138.790107,92.0635996 133.94575,91.9431808 132.95236,91.2480177 L132.95236,91.2480177 L132.95236,91.2480177 Z" id="path8587" fill="#030303"></path>
                        </g>
                    </g>
                </g>
            </g>
        </g>
    </g>
</svg>