<?xml version="1.0" encoding="UTF-8" standalone="no"?>
<svg width="25px" height="21px" viewBox="0 0 25 21" version="1.1" xmlns="http://www.w3.org/2000/svg" xmlns:xlink="http://www.w3.org/1999/xlink">
    <!-- Generator: Sketch 39.1 (31720) - http://www.bohemiancoding.com/sketch -->
    <title>Social</title>
    <g id="Website-/-LP" stroke="none" stroke-width="1" fill="none" fill-rule="evenodd">
        <g id="Home" transform="translate(-1057.000000, -1988.000000)" fill="#334A79">
            <g id="Footer" transform="translate(357.000000, 1988.000000)">
                <g id="Social" transform="translate(700.000000, 0.000000)">
                    <path d="M25,2.4048913 C24.0796196,2.81304348 23.0915761,3.08858696 22.0538043,3.21277174 C23.1133152,2.57798913 23.9263587,1.57255435 24.3095109,0.375 C23.3182065,0.9625 22.2203804,1.38967391 21.0524457,1.61956522 C20.1165761,0.622554348 18.7834239,0 17.3084239,0 C14.4758152,0 12.1793478,2.29646739 12.1793478,5.12880435 C12.1793478,5.53097826 12.2244565,5.92228261 12.3122283,6.29755435 C8.04972826,6.08396739 4.26929348,4.04184783 1.74021739,0.938586957 C1.2986413,1.69646739 1.04565217,2.57744565 1.04565217,3.5173913 C1.04565217,5.29673913 1.95108696,6.86630435 3.32717391,7.78641304 C2.48695652,7.75978261 1.69565217,7.52934783 1.00407609,7.1451087 C1.00353261,7.16630435 1.00353261,7.18777174 1.00353261,7.20951087 C1.00353261,9.69456522 2.77201087,11.767663 5.11793478,12.238587 C4.68804348,12.3559783 4.23478261,12.4190217 3.76657609,12.4190217 C3.43641304,12.4190217 3.11548913,12.3866848 2.80190217,12.3269022 C3.45461957,14.3644022 5.34945652,15.8475543 7.59320652,15.888587 C5.8375,17.2646739 3.62663043,18.0845109 1.22336957,18.0845109 C0.80951087,18.0845109 0.401358696,18.0600543 0,18.0122283 C2.26956522,19.4679348 4.96494565,20.3173913 7.8625,20.3173913 C17.2961957,20.3173913 22.4557065,12.5013587 22.4557065,5.72336957 C22.4557065,5.50163043 22.4508152,5.28016304 22.4407609,5.05978261 C23.4429348,4.33695652 24.3122283,3.43369565 25,2.4048913" id="Fill-250"></path>
                </g>
            </g>
        </g>
    </g>
</svg>
