<?xml version="1.0" encoding="UTF-8" standalone="no"?>
<svg width="302px" height="175px" viewBox="0 0 302 175" version="1.1" xmlns="http://www.w3.org/2000/svg" xmlns:xlink="http://www.w3.org/1999/xlink">
    <!-- Generator: Sketch 3.8.3 (29802) - http://www.bohemiancoding.com/sketch -->
    <title>wisconsin-ux</title>
    <desc>Created with Sketch.</desc>
    <defs></defs>
    <g id="Website-/-LP" stroke="none" stroke-width="1" fill="none" fill-rule="evenodd">
        <g id="Home" transform="translate(-574.000000, -114.000000)">
            <g id="Header" transform="translate(-53.000000, -49.000000)">
                <g id="wisconsin-ux" transform="translate(627.000000, 149.000000)">
                    <polygon id="Rectangle-6" fill="#F35439" transform="translate(151.127285, 84.819970) rotate(93.000000) translate(-151.127285, -84.819970) " points="74 -62 214.346365 -42.2756047 228.25457 231.63994 87.4341998 211.848927"></polygon>
                    <path d="M175.859964,45 L175.859964,96.0661269 C175.859964,101.896116 174.55377,107.006276 171.941342,111.396761 C169.328913,115.787246 165.554461,119.152035 160.617873,121.491228 C155.681284,123.830421 149.843946,125 143.105682,125 C132.944237,125 125.05302,122.399936 119.431795,117.19973 C113.81057,111.999524 111,104.883086 111,95.8502024 L111,45 L127.701441,45 L127.701441,93.3130904 C127.701441,99.3949922 128.926561,103.857386 131.376839,106.700405 C133.827116,109.543424 137.880824,110.964912 143.538082,110.964912 C149.015173,110.964912 152.987806,109.534427 155.456101,106.673414 C157.924395,103.812401 159.158524,99.3230175 159.158524,93.2051282 L159.158524,45 L175.859964,45 Z M248,123.920378 L228.866311,123.920378 L210.489321,94.0688259 L192.112331,123.920378 L174.167741,123.920378 L200.381976,83.2186235 L175.84329,45 L194.328379,45 L211.35412,73.3940621 L228.055561,45 L246.108251,45 L221.299315,84.1363023 L248,123.920378 Z" id="UX" fill="#FFFFFF"></path>
                    <path d="M66.102583,99.5801265 L65.1667554,102.537569 L65.2813875,102.991708 L65.6252839,104.127055 L65.9691804,105.375937 L66.5423411,105.830076 L68.7203518,106.738353 L69.2935125,107.419562 C69.2935125,107.419562 69.2935129,108.100772 69.5227768,107.987235 C69.7520407,107.873698 90.0544804,107.906188 90.615091,107.873701 C91.1757015,107.841213 90.9921795,107.060995 91.0736195,106.738353 C91.1550595,106.415712 91.0736195,108.554909 91.0736195,106.057145 C91.0736195,103.559381 90.8443552,103.672916 90.8443552,103.105242 C90.8443552,102.537569 90.1565624,102.537569 90.5004588,101.856361 C90.8443552,101.175152 89.9272981,101.629291 90.3858267,100.721013 C90.8443552,99.8127356 89.9272981,99.6992009 90.3858267,99.245062 C90.8443552,98.7909232 89.9272981,98.6773885 90.3858267,98.3367843 C90.8443552,97.9961802 90.8443552,97.5420413 90.8443552,97.5420413 L91.417516,95.2713469 L91.5321481,94.0224651 L91.5321481,92.6600484 C91.5321481,92.3194443 91.417516,91.638236 91.8760445,91.638236 C92.3345731,91.638236 92.7931017,90.843493 92.7931017,90.843493 C92.7931017,90.843493 92.9077338,90.6164235 92.9077338,90.2758194 C92.9077338,89.9352152 92.9077338,90.2758194 92.9077338,89.2540069 L92.9077338,86.9833126 L93.8247909,84.9396877 L94.6272159,83.2366669 L95.0857445,82.5554586 C95.0857445,82.5554586 94.9711124,83.0095975 95.4296409,82.1013198 C95.8881695,81.193042 96.0028016,80.6253684 96.0028016,80.6253684 L96.1174338,79.7170907 C96.1174338,79.7170907 97.1613209,78.0892242 96.9785159,77.7529793 C96.7957109,77.4167345 95.4928886,78.2705022 95.3150088,78.2411394 C95.0343601,78.1948124 95.085744,78.9888067 95.085744,78.9888067 L94.2371127,79.9441607 L93.6220543,81.1297481 L93.042142,82.3283901 L92.9077353,82.9225681 L92.1634871,84.1235835 L91.0736204,85.4999997 L90.0722885,86.6648623 C90.0722885,86.6648623 88.4370803,87.5509862 89.2395053,85.7344307 C90.0419303,83.9178752 90.2711945,83.3502016 90.2711945,83.3502016 L91.5321481,82.1013198 C91.5321481,82.1013198 91.6253672,81.177455 91.5321481,80.7389031 C91.438929,80.3003513 91.0736195,80.70771 91.0736195,79.9441601 C91.0736195,79.1806103 91.712022,78.7364282 91.5321481,78.3546741 C91.3522742,77.97292 90.6735634,79.038173 90.2711945,78.2411394 C89.8688257,77.4441058 90.2582994,76.2017448 90.2711945,75.8569103 C90.2840896,75.5120758 91.0886829,75.7848135 90.3858267,75.175702 C89.6829705,74.5665905 89.0109968,74.8111325 88.4370803,74.2674243 C87.8631637,73.7237161 88.2230247,73.0950067 87.7492874,72.6779382 C87.2755501,72.2608698 87.0731236,72.6240503 86.3737017,72.4508688 C85.6742798,72.2776873 85.3878395,72.0779915 84.998116,71.9967299 C84.6083925,71.9154683 84.195691,71.9967299 84.195691,71.9967299 C84.195691,71.9967299 85.0694938,72.5879683 83.6225303,72.1102646 C82.1755668,71.6325609 80.7567267,70.8613828 80.7567267,70.8613828 L74.1080625,69.0448273 C74.1080625,69.0448273 73.8138378,67.77915 72.8471089,67.0012024 C71.88038,66.2232548 70.4398339,66.0929246 70.4398339,66.0929246 C70.4398339,66.0929246 69.6055647,66.1707123 69.5227768,65.9793899 C69.4399889,65.7880675 70.0959375,65.2981816 70.0959375,65.2981816 C70.0959375,65.2981816 70.7687482,65.0351734 71.1276268,64.730508 C71.4865054,64.4258427 71.7007875,63.935765 71.7007875,63.935765 C71.7007875,63.935765 72.785773,63.7454788 71.3568911,63.3680914 C69.9280091,62.9907041 69.2088639,62.9620472 68.2618232,63.0274873 C67.3147825,63.0929273 67.227982,63.4180713 66.4277089,63.7086956 C65.6274359,63.9993198 64.8228589,64.2763692 64.8228589,64.2763692 L63.7911697,64.6169733 L62.0716875,65.2981816 L61.1546304,65.2981816 C61.1546304,65.2981816 60.9253661,64.925139 60.4668375,64.9575775 C60.008309,64.990016 59.5497804,65.4117163 59.5497804,65.4117163 C59.5497804,65.4117163 58.1446589,64.3348964 57.601034,66.5783151 C57.0574092,68.8217339 58.1741947,70.6949175 58.1741947,71.0884522 C58.1741947,71.4819869 58.6037062,70.878938 57.601034,71.6561258 C56.5983617,72.4333135 56.0125578,72.6208206 55.5376554,73.1320771 C55.062753,73.6433336 54.9644947,74.4944937 54.9644947,74.4944937 C54.9644947,74.4944937 54.2320745,74.6270939 54.0474376,75.175702 C53.8628006,75.7243101 54.2767019,76.5381186 54.2767019,76.5381186 C54.2767019,76.5381186 55.8366375,77.7870006 55.4005661,78.0140699 C54.9644947,78.2411393 54.7152153,80.8164383 54.7152153,81.0949354 C54.7152153,81.3734324 54.4340457,82.1218898 54.5746305,82.4351989 C54.7152153,82.7485079 54.6273498,83.6362135 54.6273498,83.8102744 C54.6273498,83.9843353 54.4659359,84.3672663 54.7152153,84.5239212 C54.9644947,84.6805761 57.3365277,86.1078682 57.7553612,86.3863652 C58.1741948,86.6648623 60.1049368,87.7962521 60.2858873,88.2314033 C60.4668378,88.6665545 62.3946587,91.5385462 62.9921444,91.538547 C63.5896301,91.5385477 65.6585152,94.5671936 65.4699512,95.5071194 C65.2813872,96.4470452 65.5402432,98.5357682 65.8741324,98.5357668 C66.2080216,98.5357653 66.0526882,100.31909 65.8389862,100.520053 L66.102583,99.5801265 Z M79.8484601,93 L76.5888168,93 L74.7604616,86.1709986 C74.6927444,85.9279514 74.5773191,85.4255624 74.4141823,84.6638167 C74.2510454,83.902071 74.1571661,83.3907902 74.1325417,83.129959 C74.095605,83.45007 74.0032648,83.9643147 73.8555182,84.6727086 C73.7077716,85.3811025 73.5938853,85.8864554 73.5138558,86.1887825 L71.6947348,93 L68.4443256,93 L65,80 L67.8164057,80 L69.5431855,87.0957592 C69.8448349,88.4058433 70.0633735,89.5410349 70.1988079,90.501368 C70.2357445,90.163473 70.3203897,89.6403364 70.4527461,88.9319425 C70.5851024,88.2235487 70.7097617,87.6737366 70.8267278,87.2824897 L72.7935947,80 L75.499191,80 L77.4660579,87.2824897 C77.5522434,87.6085288 77.6599737,88.1064718 77.789252,88.7763338 C77.9185303,89.4461958 78.0170266,90.0212014 78.0847437,90.501368 C78.1463048,90.0389854 78.2448011,89.4624978 78.3802355,88.7718878 C78.5156699,88.0812779 78.6387902,87.522574 78.7496002,87.0957592 L80.4671459,80 L83.2835516,80 L79.8484601,93 Z M84.1374237,93 L84.1374237,80 L87,80 L87,93 L84.1374237,93 Z" id="WI" fill="#FFFFFF"></path>
                    <path d="M75.5634766,188 L72.4609375,188 L70.7207031,181.25 C70.6562497,181.009764 70.5463875,180.513187 70.3911133,179.760254 C70.2358391,179.00732 70.1464845,178.501954 70.1230469,178.244141 C70.0878904,178.560548 70.0000007,179.068844 69.859375,179.769043 C69.7187493,180.469242 69.6103519,180.968749 69.5341797,181.267578 L67.8027344,188 L64.7089844,188 L61.4306641,175.150391 L64.1113281,175.150391 L65.7548828,182.164062 C66.0419936,183.458991 66.2499994,184.58105 66.3789062,185.530273 C66.4140627,185.196287 66.4946283,184.679203 66.6206055,183.979004 C66.7465827,183.278805 66.8652338,182.735353 66.9765625,182.348633 L68.8486328,175.150391 L71.4238281,175.150391 L73.2958984,182.348633 C73.3779301,182.6709 73.4804681,183.163083 73.6035156,183.825195 C73.7265631,184.487308 73.8203122,185.055662 73.8847656,185.530273 C73.9433597,185.07324 74.0371087,184.503421 74.1660156,183.820801 C74.2949225,183.13818 74.4121088,182.58594 74.5175781,182.164062 L76.1523438,175.150391 L78.8330078,175.150391 L75.5634766,188 Z M84.4501953,188 L84.4501953,175.150391 L87.1748047,175.150391 L87.1748047,188 L84.4501953,188 Z M101.994141,184.431641 C101.994141,185.591803 101.576664,186.505856 100.741699,187.173828 C99.9067341,187.8418 98.7451246,188.175781 97.2568359,188.175781 C95.8857353,188.175781 94.6728568,187.917971 93.6181641,187.402344 L93.6181641,184.871094 C94.4853559,185.257814 95.2192353,185.530273 95.8198242,185.688477 C96.4204132,185.84668 96.9697241,185.925781 97.4677734,185.925781 C98.0654327,185.925781 98.5239242,185.811525 98.8432617,185.583008 C99.1625993,185.354491 99.3222656,185.014651 99.3222656,184.563477 C99.3222656,184.311522 99.2519538,184.087403 99.1113281,183.891113 C98.9707024,183.694823 98.7641615,183.50586 98.4916992,183.324219 C98.2192369,183.142577 97.6640667,182.852541 96.8261719,182.454102 C96.0410117,182.084959 95.4521504,181.73047 95.0595703,181.390625 C94.6669902,181.05078 94.3535168,180.655276 94.1191406,180.204102 C93.8847645,179.752927 93.7675781,179.225589 93.7675781,178.62207 C93.7675781,177.485346 94.1528282,176.5918 94.9233398,175.941406 C95.6938515,175.291012 96.7587823,174.96582 98.1181641,174.96582 C98.7861362,174.96582 99.4233368,175.044921 100.029785,175.203125 C100.636234,175.361329 101.270505,175.583983 101.932617,175.871094 L101.053711,177.989258 C100.368161,177.708006 99.8012718,177.511719 99.3530273,177.400391 C98.9047829,177.289062 98.4638694,177.233398 98.0302734,177.233398 C97.5146459,177.233398 97.119142,177.353514 96.84375,177.59375 C96.568358,177.833986 96.4306641,178.147459 96.4306641,178.53418 C96.4306641,178.774415 96.4863276,178.983886 96.5976562,179.162598 C96.7089849,179.341309 96.8862293,179.514159 97.1293945,179.681152 C97.3725598,179.848145 97.9482376,180.148435 98.8564453,180.582031 C100.057623,181.156253 100.880857,181.731931 101.326172,182.309082 C101.771487,182.886233 101.994141,183.593746 101.994141,184.431641 L101.994141,184.431641 Z M113.78125,177.233398 C112.755854,177.233398 111.961917,177.618648 111.399414,178.38916 C110.836911,179.159672 110.555664,180.233392 110.555664,181.610352 C110.555664,184.4756 111.630849,185.908203 113.78125,185.908203 C114.683598,185.908203 115.776361,185.682619 117.05957,185.231445 L117.05957,187.516602 C116.004878,187.956057 114.827155,188.175781 113.526367,188.175781 C111.657217,188.175781 110.227544,187.608892 109.237305,186.475098 C108.247065,185.341303 107.751953,183.713878 107.751953,181.592773 C107.751953,180.256829 107.995115,179.086431 108.481445,178.081543 C108.967776,177.076655 109.666499,176.306155 110.577637,175.77002 C111.488774,175.233884 112.556635,174.96582 113.78125,174.96582 C115.029303,174.96582 116.283197,175.267575 117.542969,175.871094 L116.664062,178.085938 C116.183591,177.857421 115.700198,177.658204 115.213867,177.488281 C114.727537,177.318359 114.250002,177.233398 113.78125,177.233398 L113.78125,177.233398 Z M135.095703,181.557617 C135.095703,183.684581 134.568365,185.31933 133.513672,186.461914 C132.458979,187.604498 130.947275,188.175781 128.978516,188.175781 C127.009756,188.175781 125.498052,187.604498 124.443359,186.461914 C123.388667,185.31933 122.861328,183.678722 122.861328,181.540039 C122.861328,179.401356 123.390131,177.768072 124.447754,176.640137 C125.505376,175.512201 127.021475,174.948242 128.996094,174.948242 C130.970713,174.948242 132.480952,175.516596 133.526855,176.65332 C134.572759,177.790045 135.095703,179.424794 135.095703,181.557617 L135.095703,181.557617 Z M125.717773,181.557617 C125.717773,182.993171 125.990232,184.074215 126.535156,184.800781 C127.080081,185.527347 127.894526,185.890625 128.978516,185.890625 C131.152355,185.890625 132.239258,184.446304 132.239258,181.557617 C132.239258,178.663071 131.158214,177.21582 128.996094,177.21582 C127.912104,177.21582 127.094729,177.580563 126.543945,178.310059 C125.993161,179.039554 125.717773,180.122063 125.717773,181.557617 L125.717773,181.557617 Z M153.158203,188 L149.695312,188 L144.105469,178.279297 L144.026367,178.279297 C144.137696,179.996102 144.193359,181.220699 144.193359,181.953125 L144.193359,188 L141.758789,188 L141.758789,175.150391 L145.195312,175.150391 L150.776367,184.774414 L150.837891,184.774414 C150.75,183.104484 150.706055,181.923832 150.706055,181.232422 L150.706055,175.150391 L153.158203,175.150391 L153.158203,188 Z M167.977539,184.431641 C167.977539,185.591803 167.560063,186.505856 166.725098,187.173828 C165.890133,187.8418 164.728523,188.175781 163.240234,188.175781 C161.869134,188.175781 160.656255,187.917971 159.601562,187.402344 L159.601562,184.871094 C160.468754,185.257814 161.202634,185.530273 161.803223,185.688477 C162.403812,185.84668 162.953123,185.925781 163.451172,185.925781 C164.048831,185.925781 164.507323,185.811525 164.82666,185.583008 C165.145998,185.354491 165.305664,185.014651 165.305664,184.563477 C165.305664,184.311522 165.235352,184.087403 165.094727,183.891113 C164.954101,183.694823 164.74756,183.50586 164.475098,183.324219 C164.202635,183.142577 163.647465,182.852541 162.80957,182.454102 C162.02441,182.084959 161.435549,181.73047 161.042969,181.390625 C160.650389,181.05078 160.336915,180.655276 160.102539,180.204102 C159.868163,179.752927 159.750977,179.225589 159.750977,178.62207 C159.750977,177.485346 160.136227,176.5918 160.906738,175.941406 C161.67725,175.291012 162.742181,174.96582 164.101562,174.96582 C164.769535,174.96582 165.406735,175.044921 166.013184,175.203125 C166.619632,175.361329 167.253903,175.583983 167.916016,175.871094 L167.037109,177.989258 C166.351559,177.708006 165.78467,177.511719 165.336426,177.400391 C164.888181,177.289062 164.447268,177.233398 164.013672,177.233398 C163.498044,177.233398 163.10254,177.353514 162.827148,177.59375 C162.551756,177.833986 162.414062,178.147459 162.414062,178.53418 C162.414062,178.774415 162.469726,178.983886 162.581055,179.162598 C162.692383,179.341309 162.869628,179.514159 163.112793,179.681152 C163.355958,179.848145 163.931636,180.148435 164.839844,180.582031 C166.041022,181.156253 166.864256,181.731931 167.30957,182.309082 C167.754885,182.886233 167.977539,183.593746 167.977539,184.431641 L167.977539,184.431641 Z M174.306641,188 L174.306641,175.150391 L177.03125,175.150391 L177.03125,188 L174.306641,188 Z M195.665039,188 L192.202148,188 L186.612305,178.279297 L186.533203,178.279297 C186.644532,179.996102 186.700195,181.220699 186.700195,181.953125 L186.700195,188 L184.265625,188 L184.265625,175.150391 L187.702148,175.150391 L193.283203,184.774414 L193.344727,184.774414 C193.256835,183.104484 193.212891,181.923832 193.212891,181.232422 L193.212891,175.150391 L195.665039,175.150391 L195.665039,188 Z M222.03418,175.150391 L222.03418,183.464844 C222.03418,184.414067 221.821779,185.24609 221.396973,185.960938 C220.972166,186.675785 220.358402,187.223631 219.555664,187.604492 C218.752926,187.985353 217.803716,188.175781 216.708008,188.175781 C215.055656,188.175781 213.772466,187.752446 212.858398,186.905762 C211.944331,186.059078 211.487305,184.900398 211.487305,183.429688 L211.487305,175.150391 L214.203125,175.150391 L214.203125,183.016602 C214.203125,184.006841 214.402342,184.733396 214.800781,185.196289 C215.199221,185.659182 215.858394,185.890625 216.77832,185.890625 C217.66895,185.890625 218.314939,185.657717 218.716309,185.191895 C219.117678,184.726072 219.318359,183.995122 219.318359,182.999023 L219.318359,175.150391 L222.03418,175.150391 Z M239.569336,188 L236.458008,188 L233.469727,183.139648 L230.481445,188 L227.563477,188 L231.826172,181.373047 L227.835938,175.150391 L230.841797,175.150391 L233.610352,179.773438 L236.326172,175.150391 L239.261719,175.150391 L235.227539,181.522461 L239.569336,188 Z" id="WISCONSIN-UX" fill="#FFFFFF"></path>
                </g>
            </g>
        </g>
    </g>
</svg>